<svg width="14" height="15" viewBox="0 0 14 15" fill="none" xmlns="http://www.w3.org/2000/svg">
<path d="M12.8822 4.81949L7.36528 7.89015C7.14317 8.01408 6.86374 8.01408 6.63447 7.89015L1.11758 4.81949C0.723515 4.59917 0.623208 4.08281 0.92413 3.75922C1.13191 3.53202 1.36835 3.34612 1.61911 3.21531L5.50243 1.14985C6.33355 0.70233 7.68053 0.70233 8.51164 1.14985L12.395 3.21531C12.6457 3.34612 12.8822 3.5389 13.0899 3.75922C13.3765 4.08281 13.2762 4.59917 12.8822 4.81949Z" fill="#F6910E"/>
<path d="M6.59161 9.17071V13.8662C6.59161 14.3895 6.03992 14.7337 5.55271 14.5065C4.07677 13.8111 1.59058 12.5099 1.59058 12.5099C0.716479 12.0348 0 10.8369 0 9.85231V6.29971C0 5.75581 0.594678 5.41156 1.08188 5.68007L6.23337 8.55107C6.44831 8.68188 6.59161 8.91597 6.59161 9.17071Z" fill="#F6910E"/>
<path d="M7.40845 9.17071V13.8662C7.40845 14.3895 7.96014 14.7337 8.44734 14.5065C9.92329 13.8111 12.4095 12.5099 12.4095 12.5099C13.2836 12.0348 14.0001 10.8369 14.0001 9.85231V6.29971C14.0001 5.75581 13.4054 5.41156 12.9182 5.68007L7.76669 8.55107C7.55174 8.68188 7.40845 8.91597 7.40845 9.17071Z" fill="#F6910E"/>
</svg>
