<svg width="24" height="24" viewBox="0 0 24 24" fill="none" xmlns="http://www.w3.org/2000/svg">
<path d="M16.75 3.56V2C16.75 1.59 16.41 1.25 16 1.25C15.59 1.25 15.25 1.59 15.25 2V3.5H8.74999V2C8.74999 1.59 8.40999 1.25 7.99999 1.25C7.58999 1.25 7.24999 1.59 7.24999 2V3.56C4.54999 3.81 3.23999 5.42 3.03999 7.81C3.01999 8.1 3.25999 8.34 3.53999 8.34H20.46C20.75 8.34 20.99 8.09 20.96 7.81C20.76 5.42 19.45 3.81 16.75 3.56Z" fill="#777777"/>
<path d="M20 9.83997H4C3.45 9.83997 3 10.29 3 10.84V17C3 20 4.5 22 8 22H16C19.5 22 21 20 21 17V10.84C21 10.29 20.55 9.83997 20 9.83997ZM14.84 14.99L14.34 15.5H14.33L11.3 18.53C11.17 18.66 10.9 18.8 10.71 18.82L9.36 19.02C8.87 19.09 8.53 18.74 8.6 18.26L8.79 16.9C8.82 16.71 8.95 16.45 9.08 16.31L12.12 13.28L12.62 12.77C12.95 12.44 13.32 12.2 13.72 12.2C14.06 12.2 14.43 12.36 14.84 12.77C15.74 13.67 15.45 14.38 14.84 14.99Z" fill="#777777"/>
</svg>
