<svg width="14" height="14" viewBox="0 0 14 14" fill="none" xmlns="http://www.w3.org/2000/svg">
<path d="M9.77088 2.07663V1.16663C9.77088 0.927459 9.57255 0.729126 9.33338 0.729126C9.09422 0.729126 8.89588 0.927459 8.89588 1.16663V2.04163H5.10422V1.16663C5.10422 0.927459 4.90589 0.729126 4.66672 0.729126C4.42755 0.729126 4.22922 0.927459 4.22922 1.16663V2.07663C2.65422 2.22246 1.89005 3.16163 1.77339 4.55579C1.76172 4.72496 1.90172 4.86496 2.06505 4.86496H11.9351C12.1042 4.86496 12.2442 4.71913 12.2267 4.55579C12.1101 3.16163 11.3459 2.22246 9.77088 2.07663Z" fill="#1F1F39"/>
<path d="M11.6667 5.73999H2.33333C2.0125 5.73999 1.75 6.00249 1.75 6.32332V9.91666C1.75 11.6667 2.625 12.8333 4.66667 12.8333H9.33333C11.375 12.8333 12.25 11.6667 12.25 9.91666V6.32332C12.25 6.00249 11.9875 5.73999 11.6667 5.73999ZM5.3725 10.6225C5.34333 10.6458 5.31417 10.675 5.285 10.6925C5.25 10.7158 5.215 10.7333 5.18 10.745C5.145 10.7625 5.11 10.7742 5.075 10.78C5.03417 10.7858 4.99917 10.7917 4.95833 10.7917C4.8825 10.7917 4.80667 10.7742 4.73667 10.745C4.66083 10.7158 4.6025 10.675 4.54417 10.6225C4.43917 10.5117 4.375 10.36 4.375 10.2083C4.375 10.0567 4.43917 9.90499 4.54417 9.79416C4.6025 9.74166 4.66083 9.70082 4.73667 9.67166C4.84167 9.62499 4.95833 9.61332 5.075 9.63666C5.11 9.64249 5.145 9.65416 5.18 9.67166C5.215 9.68332 5.25 9.70082 5.285 9.72416C5.31417 9.74749 5.34333 9.77082 5.3725 9.79416C5.4775 9.90499 5.54167 10.0567 5.54167 10.2083C5.54167 10.36 5.4775 10.5117 5.3725 10.6225ZM5.3725 8.58082C5.26167 8.68582 5.11 8.74999 4.95833 8.74999C4.80667 8.74999 4.655 8.68582 4.54417 8.58082C4.43917 8.46999 4.375 8.31832 4.375 8.16666C4.375 8.01499 4.43917 7.86332 4.54417 7.75249C4.7075 7.58916 4.96417 7.53666 5.18 7.62999C5.25583 7.65916 5.32 7.69999 5.3725 7.75249C5.4775 7.86332 5.54167 8.01499 5.54167 8.16666C5.54167 8.31832 5.4775 8.46999 5.3725 8.58082ZM7.41417 10.6225C7.30333 10.7275 7.15167 10.7917 7 10.7917C6.84833 10.7917 6.69667 10.7275 6.58583 10.6225C6.48083 10.5117 6.41667 10.36 6.41667 10.2083C6.41667 10.0567 6.48083 9.90499 6.58583 9.79416C6.80167 9.57832 7.19833 9.57832 7.41417 9.79416C7.51917 9.90499 7.58333 10.0567 7.58333 10.2083C7.58333 10.36 7.51917 10.5117 7.41417 10.6225ZM7.41417 8.58082C7.385 8.60416 7.35583 8.62749 7.32667 8.65082C7.29167 8.67416 7.25667 8.69166 7.22167 8.70332C7.18667 8.72082 7.15167 8.73249 7.11667 8.73832C7.07583 8.74416 7.04083 8.74999 7 8.74999C6.84833 8.74999 6.69667 8.68582 6.58583 8.58082C6.48083 8.46999 6.41667 8.31832 6.41667 8.16666C6.41667 8.01499 6.48083 7.86332 6.58583 7.75249C6.63833 7.69999 6.7025 7.65916 6.77833 7.62999C6.99417 7.53666 7.25083 7.58916 7.41417 7.75249C7.51917 7.86332 7.58333 8.01499 7.58333 8.16666C7.58333 8.31832 7.51917 8.46999 7.41417 8.58082ZM9.45583 10.6225C9.345 10.7275 9.19333 10.7917 9.04167 10.7917C8.89 10.7917 8.73833 10.7275 8.6275 10.6225C8.5225 10.5117 8.45833 10.36 8.45833 10.2083C8.45833 10.0567 8.5225 9.90499 8.6275 9.79416C8.84333 9.57832 9.24 9.57832 9.45583 9.79416C9.56083 9.90499 9.625 10.0567 9.625 10.2083C9.625 10.36 9.56083 10.5117 9.45583 10.6225ZM9.45583 8.58082C9.42667 8.60416 9.3975 8.62749 9.36833 8.65082C9.33333 8.67416 9.29833 8.69166 9.26333 8.70332C9.22833 8.72082 9.19333 8.73249 9.15833 8.73832C9.1175 8.74416 9.07667 8.74999 9.04167 8.74999C8.89 8.74999 8.73833 8.68582 8.6275 8.58082C8.5225 8.46999 8.45833 8.31832 8.45833 8.16666C8.45833 8.01499 8.5225 7.86332 8.6275 7.75249C8.68583 7.69999 8.74417 7.65916 8.82 7.62999C8.925 7.58332 9.04167 7.57166 9.15833 7.59499C9.19333 7.60082 9.22833 7.61249 9.26333 7.62999C9.29833 7.64166 9.33333 7.65916 9.36833 7.68249C9.3975 7.70582 9.42667 7.72916 9.45583 7.75249C9.56083 7.86332 9.625 8.01499 9.625 8.16666C9.625 8.31832 9.56083 8.46999 9.45583 8.58082Z" fill="#1F1F39"/>
</svg>
