<svg width="12" height="12" viewBox="0 0 12 12" fill="none" xmlns="http://www.w3.org/2000/svg">
<path d="M5.525 7.475L4.6 8.4C4.405 8.595 4.095 8.595 3.895 8.405C3.84 8.35 3.785 8.3 3.73 8.245C3.215 7.725 2.75 7.18 2.335 6.61C1.925 6.04 1.595 5.47 1.355 4.905C1.12 4.335 1 3.79 1 3.27C1 2.93 1.06 2.605 1.18 2.305C1.3 2 1.49 1.72 1.755 1.47C2.075 1.155 2.425 1 2.795 1C2.935 1 3.075 1.03 3.2 1.09C3.33 1.15 3.445 1.24 3.535 1.37L4.695 3.005C4.785 3.13 4.85 3.245 4.895 3.355C4.94 3.46 4.965 3.565 4.965 3.66C4.965 3.78 4.93 3.9 4.86 4.015C4.795 4.13 4.7 4.25 4.58 4.37L4.2 4.765C4.145 4.82 4.12 4.885 4.12 4.965C4.12 5.005 4.125 5.04 4.135 5.08C4.15 5.12 4.165 5.15 4.175 5.18C4.265 5.345 4.42 5.56 4.64 5.82C4.865 6.08 5.105 6.345 5.365 6.61C5.415 6.66 5.47 6.71 5.52 6.76C5.72 6.955 5.725 7.275 5.525 7.475Z" fill="white"/>
<path d="M10.985 9.16502C10.985 9.30502 10.96 9.45002 10.91 9.59002C10.895 9.63002 10.88 9.67002 10.86 9.71002C10.775 9.89002 10.665 10.06 10.52 10.22C10.275 10.49 10.005 10.685 9.69999 10.81C9.69499 10.81 9.68999 10.815 9.68499 10.815C9.38999 10.935 9.06999 11 8.72499 11C8.21499 11 7.66999 10.88 7.09499 10.635C6.51999 10.39 5.94499 10.06 5.37499 9.64502C5.17999 9.50002 4.98499 9.35502 4.79999 9.20002L6.43499 7.56502C6.57499 7.67002 6.69999 7.75002 6.80499 7.80502C6.82999 7.81502 6.85999 7.83002 6.89499 7.84502C6.93499 7.86002 6.97499 7.86502 7.01999 7.86502C7.10499 7.86502 7.16999 7.83502 7.22499 7.78002L7.60499 7.40502C7.72999 7.28002 7.84999 7.18502 7.96499 7.12502C8.07999 7.05502 8.19499 7.02002 8.31999 7.02002C8.41499 7.02002 8.51499 7.04002 8.62499 7.08502C8.73499 7.13002 8.84999 7.19502 8.97499 7.28002L10.63 8.45502C10.76 8.54502 10.85 8.65002 10.905 8.77502C10.955 8.90002 10.985 9.02502 10.985 9.16502Z" fill="white"/>
</svg>
