<svg width="16" height="16" viewBox="0 0 16 16" fill="none" xmlns="http://www.w3.org/2000/svg">
<path d="M14.0467 3.48671C12.9733 3.38004 11.9 3.30004 10.82 3.24004V3.23337L10.6733 2.36671C10.5733 1.75337 10.4267 0.833374 8.86667 0.833374H7.12C5.56667 0.833374 5.42 1.71337 5.31334 2.36004L5.17334 3.21337C4.55334 3.25337 3.93334 3.29337 3.31334 3.35337L1.95334 3.48671C1.67334 3.51337 1.47334 3.76004 1.5 4.03337C1.52667 4.30671 1.76667 4.50671 2.04667 4.48004L3.40667 4.34671C6.9 4.00004 10.42 4.13337 13.9533 4.48671C13.9733 4.48671 13.9867 4.48671 14.0067 4.48671C14.26 4.48671 14.48 4.29337 14.5067 4.03337C14.5267 3.76004 14.3267 3.51337 14.0467 3.48671Z" fill="white"/>
<path d="M12.82 5.42663C12.66 5.25996 12.44 5.16663 12.2133 5.16663H3.78664C3.55998 5.16663 3.33331 5.25996 3.17998 5.42663C3.02664 5.59329 2.93998 5.81996 2.95331 6.05329L3.36664 12.8933C3.43998 13.9066 3.53331 15.1733 5.85998 15.1733H10.14C12.4666 15.1733 12.56 13.9133 12.6333 12.8933L13.0466 6.05996C13.06 5.81996 12.9733 5.59329 12.82 5.42663ZM9.10664 11.8333H6.88664C6.61331 11.8333 6.38664 11.6066 6.38664 11.3333C6.38664 11.06 6.61331 10.8333 6.88664 10.8333H9.10664C9.37998 10.8333 9.60664 11.06 9.60664 11.3333C9.60664 11.6066 9.37998 11.8333 9.10664 11.8333ZM9.66664 9.16663H6.33331C6.05998 9.16663 5.83331 8.93996 5.83331 8.66663C5.83331 8.39329 6.05998 8.16663 6.33331 8.16663H9.66664C9.93998 8.16663 10.1666 8.39329 10.1666 8.66663C10.1666 8.93996 9.93998 9.16663 9.66664 9.16663Z" fill="white"/>
</svg>
