<svg width="15" height="15" viewBox="0 0 15 15" fill="none" xmlns="http://www.w3.org/2000/svg">
<path d="M12.8125 6.36875H11.0063C9.525 6.36875 8.31875 5.1625 8.31875 3.68125V1.875C8.31875 1.53125 8.0375 1.25 7.69375 1.25H5.04375C3.11875 1.25 1.5625 2.5 1.5625 4.73125V10.2688C1.5625 12.5 3.11875 13.75 5.04375 13.75H9.95625C11.8813 13.75 13.4375 12.5 13.4375 10.2688V6.99375C13.4375 6.65 13.1562 6.36875 12.8125 6.36875Z" fill="#7D8187"/>
<path d="M9.87499 1.38131C9.61874 1.12506 9.17499 1.30006 9.17499 1.65631V3.83756C9.17499 4.75006 9.94999 5.50631 10.8937 5.50631C11.4875 5.51256 12.3125 5.51256 13.0187 5.51256C13.375 5.51256 13.5625 5.09381 13.3125 4.84381C12.4125 3.93756 10.8 2.30631 9.87499 1.38131Z" fill="#7D8187"/>
</svg>
