<svg width="12" height="12" viewBox="0 0 12 12" fill="none" xmlns="http://www.w3.org/2000/svg">
<path d="M9.75 4C10.4404 4 11 3.44036 11 2.75C11 2.05964 10.4404 1.5 9.75 1.5C9.05964 1.5 8.5 2.05964 8.5 2.75C8.5 3.44036 9.05964 4 9.75 4Z" fill="white"/>
<path d="M9.75 4C10.4404 4 11 3.44036 11 2.75C11 2.05964 10.4404 1.5 9.75 1.5C9.05964 1.5 8.5 2.05964 8.5 2.75C8.5 3.44036 9.05964 4 9.75 4Z" fill="white"/>
<path d="M10.36 4.655C10.01 4.765 9.625 4.785 9.225 4.685C8.555 4.51 8.01 3.975 7.825 3.305C7.735 2.98 7.73 2.66 7.785 2.37C7.85 2.05 7.625 1.75 7.305 1.75H3.5C2 1.75 1 2.5 1 4.25V7.75C1 9.5 2 10.25 3.5 10.25H8.5C10 10.25 11 9.5 11 7.75V5.13C11 4.8 10.68 4.55 10.36 4.655ZM7.76 5.575L7.17 6.045C6.84 6.31 6.42 6.44 6 6.44C5.58 6.44 5.155 6.31 4.83 6.045L3.265 4.795C3.105 4.665 3.08 4.425 3.205 4.265C3.335 4.105 3.57 4.075 3.73 4.205L5.295 5.455C5.675 5.76 6.32 5.76 6.7 5.455L7.29 4.985C7.45 4.855 7.69 4.88 7.815 5.045C7.945 5.205 7.92 5.445 7.76 5.575Z" fill="white"/>
</svg>
